HIERARCHY
ROOT Hips
{
	OFFSET 0.00000 0.00000 0.00000
	CHANNELS 6 Xposition Yposition Zposition Yrotation Zrotation Xrotation 
	JOINT Lumbar
	{
		OFFSET 0 0 0
		CHANNELS 3 Zrotation Xrotation Yrotation
		JOINT Neck
		{
			OFFSET 0.00 0.2701 0.00
			CHANNELS 3 Zrotation Xrotation Yrotation
			End Site
			{
				OFFSET 0.00 0.1379 0.00
			}
		}
		JOINT RightShoulder
		{
			OFFSET 0.0119 0.2289 0.1181
			CHANNELS 3 Zrotation Xrotation Yrotation
			JOINT RightElbow
			{
				OFFSET 0.00 -0.1475 0.00
				CHANNELS 2 Zrotation Yrotation
				JOINT RightWrist
				{
					OFFSET 0.00 -0.1605 0.00
					CHANNELS 2 Zrotation Xrotation
					End Site
					{
						OFFSET 0.0040 -0.1068 0.0006
					}
				}
			}
		}
		JOINT LeftShoulder
		{
			OFFSET 0.0119 0.2289 -0.1181
			CHANNELS 3 Zrotation Xrotation Yrotation
			JOINT LeftElbow
			{
				OFFSET 0.00 -0.1475 0.00
				CHANNELS 2 Zrotation Yrotation
				JOINT LeftWrist
				{
					OFFSET 0.00 -0.1605 0.00
					CHANNELS 2 Zrotation Xrotation
					End Site
					{
						OFFSET 0.0040 -0.1068 -0.0006
					}
				}
			}
		}
	}
	JOINT RightHip
	{
		OFFSET 0.0316 -0.0424 0.0458
		CHANNELS 3 Zrotation Xrotation Yrotation
		JOINT RightKnee
		{
			OFFSET 0.00 -0.2438 0.00
			CHANNELS 1 Zrotation
			JOINT RightAnkle
			{
				OFFSET 0.00 -0.2449 0.00
				CHANNELS 3 Zrotation Xrotation Yrotation
				End Site
				{
					OFFSET 0.1237 -0.0542 0.0051
				}
			}
		}
	}
	JOINT LeftHip
	{
		OFFSET 0.0316 -0.0424 -0.0458
		CHANNELS 3 Zrotation Xrotation Yrotation
		JOINT LeftKnee
		{
			OFFSET 0.00 -0.2438 0.00
			CHANNELS 1 Zrotation
			JOINT LeftAnkle
			{
				OFFSET 0.00 -0.2449 0.00
				CHANNELS 3 Zrotation Xrotation Yrotation
				End Site
				{
					OFFSET 0.1237 -0.0542 -0.0051
				}
			}
		}
	}
}
MOTION
Frames: 29
Frame Time: 0.02
-0 0.57926 -0 182.60218 0 -4.10386 6.99563 3.63877 -5.07314 -11.68074 8.62894 -1.09403 2.77112 -39.47566 37.57406 50.91918 101.20368 8.18467 4.70722 24.15102 1.9 -5.32647 15.0444 -86.0329 -7.33413 5.75324 -5.24395 6.87073 1.34743 -5.19493 2.94778 -3.5632 -5.97347 -4.18559 2.46916 -10.39989 -5.9214 7.05429 4.44945 6.14049
0.00026 0.57932 0.00026 182.63349 0 -4.12226 6.98385 3.68633 -5.1239 -11.97949 8.39984 -1.11031 2.02374 -39.98583 37.21207 51.7126 100.77497 10.44703 3.86239 24.86793 2.10028 -5.72525 15.5333 -85.95566 -7.54071 6.18182 -5.22466 6.94438 2.88456 -5.19978 2.78169 -3.71861 -7.57582 -4.1331 2.45843 -10.48842 -5.97078 7.03773 4.46244 6.18902
0.00052 0.57938 0.00051 182.66395 0 -4.14064 6.97203 3.73438 -5.17534 -12.27957 8.17047 -1.12745 1.27949 -40.4879 36.85084 52.49915 100.33523 12.67576 3.0229 25.57848 2.30241 -6.11954 16.01746 -85.87847 -7.74414 6.60507 -5.20536 7.01732 4.40829 -5.20467 2.61696 -3.87272 -9.16367 -4.0811 2.44778 -10.57563 -6.01965 7.02134 4.47532 6.23705
0.00078 0.57944 0.00077 182.69251 0 -4.15903 6.96023 3.78377 -5.22864 -12.58468 7.93903 -1.14773 0.54147 -40.9644 36.49331 53.26179 99.8439 14.79219 2.19716 26.27318 2.51145 -6.50564 16.49055 -85.80238 -7.93925 7.01381 -5.18625 7.08865 5.90069 -5.20937 2.45532 -4.02374 -10.71764 -4.03052 2.43744 -10.65915 -6.06688 7.00536 4.48777 6.28333
0.00105 0.57951 0.00103 182.73261 0 -4.17728 6.94872 3.82477 -5.27049 -12.85928 7.72002 -1.15084 -0.22833 -41.57856 36.12121 54.14607 99.62175 17.50376 1.29939 27.05495 2.68094 -6.94231 17.02605 -85.72243 -8.18115 7.50261 -5.16664 7.16914 7.56771 -5.21456 2.27647 -4.19183 -12.46119 -3.97235 2.42561 -10.76309 -6.12274 6.9871 4.50241 6.33856
0.00129 0.57956 0.00128 182.74725 0 -4.19585 6.93633 3.88434 -5.33762 -13.20076 7.47395 -1.1906 -0.93098 -41.89949 35.77686 54.77557 98.83334 18.95374 0.55433 27.64968 2.93593 -7.26671 17.42649 -85.64941 -8.32203 7.81942 -5.14774 7.22972 8.85786 -5.21908 2.13474 -4.32316 -13.79519 -3.93035 2.41682 -10.82315 -6.16032 6.97372 4.51248 6.37502
0.0014 0.57957 0.00148 182.69777 0 -4.21561 6.9233 3.99155 -5.46928 -13.72157 7.15196 -1.33368 -1.45365 -41.4022 35.53203 54.66467 96.3793 16.82982 0.2294 27.7431 3.42576 -7.31801 17.47234 -85.60489 -8.1935 7.67093 -5.13343 7.2389 9.15678 -5.2188 2.09038 -4.35699 -14.05331 -3.93302 2.41759 -10.76422 -6.1465 6.97357 4.5092 6.35697
0.00146 0.57957 0.00166 182.62128 0 -4.23569 6.90899 4.11835 -5.6274 -14.31166 6.80268 -1.51357 -1.90775 -40.61016 35.31132 54.30326 93.37121 13.44512 0.05814 27.6451 4.00243 -7.24819 17.37835 -85.56537 -7.96161 7.34702 -5.11931 7.22741 9.06811 -5.21839 2.08419 -4.35302 -13.88964 -3.95202 2.42123 -10.66046 -6.1144 6.97839 4.50145 6.32048
0.00155 0.57957 0.00185 182.55321 0 -4.25541 6.89415 4.23865 -5.77723 -14.87394 6.46604 -1.67537 -2.39084 -39.95747 35.0636 54.08018 90.67762 10.69462 -0.18225 27.62476 4.54118 -7.21112 17.33661 -85.51768 -7.76996 7.09667 -5.10337 7.22291 9.1228 -5.22 2.06404 -4.36376 -13.8814 -3.96354 2.42277 -10.57578 -6.09126 6.98111 4.49623 6.29409
0.00163 0.57957 0.00203 182.50187 0 -4.27592 6.8842 4.3486 -5.91199 -15.41978 6.12777 -1.84273 -2.8846 -39.2809 34.88119 53.75353 87.71295 7.69127 -0.42381 27.64339 5.07443 -7.27238 17.3432 -85.49578 -7.60464 6.87169 -5.09481 7.22814 9.30903 -5.2134 2.03032 -4.38484 -14.01983 -3.97528 2.42761 -10.49684 -6.06538 6.98318 4.4889 6.2603
0.00171 0.57957 0.00223 182.40869 0 -4.29504 6.86355 4.485 -6.08353 -16.01741 5.78725 -2.00745 -3.33784 -38.58546 34.57156 53.58334 85.18969 4.90828 -0.62864 27.53588 5.63843 -7.09475 17.21509 -85.42021 -7.36258 6.55298 -5.07085 7.20871 9.13768 -5.22379 2.03302 -4.37547 -13.76045 -3.99046 2.42636 -10.39496 -6.04083 6.98773 4.48491 6.23774
0.00182 0.57957 0.0025 182.21138 0 -4.30867 6.81551 4.68755 -6.358 -16.733 5.43961 -2.15401 -3.71157 -37.89726 33.87884 53.90289 83.9485 3.10127 -0.75048 27.12397 6.27741 -6.33263 16.75654 -85.20495 -6.91103 6.01218 -5.00482 7.12202 8.00118 -5.28171 2.13481 -4.29104 -12.43822 -4.01097 2.40653 -10.24341 -6.02465 6.99844 4.49121 6.2488
0.00194 0.57956 0.0028 181.97198 0 -4.32118 6.75642 4.91635 -6.66716 -17.50046 5.09203 -2.29673 -4.0427 -37.20212 33.0626 54.388 83.18448 1.54924 -0.84382 26.59308 6.94202 -5.32591 16.16614 -84.93358 -6.39005 5.38451 -4.92317 7.01202 6.53149 -5.35663 2.2705 -4.1774 -10.74252 -4.03443 2.38068 -10.0697 -6.01034 7.01138 4.50104 6.27207
0.00206 0.57957 0.00308 181.74874 0 -4.33524 6.70114 5.13462 -6.95527 -18.24875 4.74935 -2.44282 -4.38477 -36.5192 32.3192 54.80122 82.24889 -0.15921 -0.96336 26.11756 7.5877 -4.40115 15.63105 -84.68163 -5.91589 4.80041 -4.84836 6.91543 5.26235 -5.42336 2.38546 -4.07721 -9.26253 -4.05661 2.35825 -9.90454 -5.99509 7.02293 4.50929 6.29114
0.00217 0.57956 0.00336 181.5372 0 -4.34494 6.65083 5.34802 -7.26649 -18.97839 4.38491 -2.58449 -4.76532 -35.78984 31.50396 55.19652 81.10122 -1.74356 -1.02341 25.62658 8.26796 -3.59487 15.10961 -84.45596 -5.3738 4.19195 -4.77471 6.8062 3.77344 -5.49202 2.52406 -3.97465 -7.57494 -4.07899 2.33294 -9.74475 -5.97978 7.03621 4.5173 6.30428
0.0023 0.57957 0.00365 181.29151 0 -4.36341 6.58769 5.57712 -7.53762 -19.76142 4.06617 -2.73251 -5.04981 -35.15673 30.81143 55.66549 80.5178 -3.50555 -1.20034 25.14617 8.88017 -2.48601 14.53143 -84.16164 -4.95791 3.61708 -4.69486 6.71806 2.66673 -5.56073 2.62116 -3.87096 -6.23496 -4.10157 2.31228 -9.56844 -5.96502 7.04638 4.5267 6.3324
0.00252 0.57963 0.00399 180.96327 0 -4.40657 6.49069 5.84647 -7.68871 -20.65246 3.87366 -2.91111 -5.13611 -34.81569 30.46344 56.35235 81.36241 -5.84658 -1.72744 24.69025 9.30552 -0.59738 13.81982 -83.69628 -4.90917 3.14702 -4.60235 6.69361 2.71133 -5.62494 2.59367 -3.76829 -5.9624 -4.12266 2.30482 -9.35829 -5.95399 7.04725 4.53897 6.40354
0.00277 0.57972 0.00435 180.60224 0 -4.45851 6.38138 6.12987 -7.79871 -21.60023 3.72726 -3.09357 -5.11647 -34.56878 30.2469 57.09883 82.76392 -8.36312 -2.37018 24.25675 9.65941 1.58464 13.05842 -83.16317 -4.98994 2.71644 -4.50408 6.69133 3.15116 -5.68863 2.52337 -3.66623 -6.05178 -4.14394 2.30242 -9.13164 -5.94313 7.04492 4.55254 6.48864
0.003 0.57979 0.0047 180.25509 0 -4.50632 6.27845 6.40467 -7.92735 -22.53903 3.55987 -3.26641 -5.10915 -34.26395 29.98713 57.78295 83.9217 -10.77688 -2.94728 23.83562 10.04116 3.63075 12.32593 -82.65755 -5.011 2.2746 -4.40794 6.67917 3.40275 -5.75298 2.4736 -3.56607 -5.96682 -4.16601 2.29846 -8.90821 -5.93042 7.04417 4.56562 6.56429
0.00323 0.57987 0.00507 179.90972 0 -4.5548 6.17176 6.69019 -8.05552 -23.40814 3.39264 -3.47325 -5.2536 -34.02203 29.65656 58.62071 85.05528 -13.28319 -3.57827 23.31335 10.44454 5.70178 11.56062 -82.16267 -5.03365 1.80109 -4.31304 6.66538 3.67952 -5.81646 2.42052 -3.45571 -5.90968 -4.18478 2.29127 -8.70077 -5.9249 7.04301 4.57844 6.65315
0.00348 0.57994 0.00538 179.55473 0 -4.60381 6.07017 6.95586 -8.17677 -24.43594 3.23597 -3.60911 -5.05475 -33.6723 29.50227 59.15156 86.36661 -15.63727 -4.12519 23.01069 10.78407 7.78058 10.85559 -81.6316 -5.08408 1.40444 -4.21475 6.66051 4.00129 -5.88099 2.36369 -3.3671 -5.88605 -4.21005 2.29196 -8.45799 -5.90488 7.04187 4.59199 6.71803
0.00376 0.57999 0.0055 179.16996 0 -4.65369 5.98555 7.16738 -8.26833 -25.88087 3.09821 -3.55806 -3.95547 -32.99649 29.83845 58.80931 88.02434 -17.56666 -4.40954 23.29211 10.97693 9.86433 10.31336 -81.00461 -5.18493 1.20818 -4.10553 6.67553 4.36002 -5.95213 2.30708 -3.33881 -5.86406 -4.25656 2.31434 -8.10809 -5.84087 7.04201 4.60808 6.70995
0.00406 0.58003 0.00555 178.77897 0 -4.7035 5.90657 7.35756 -8.35757 -27.48414 2.96965 -3.43392 -2.51032 -32.21041 30.342 58.15652 89.84338 -19.33246 -4.60612 23.79736 11.10542 11.93311 9.83743 -80.34645 -5.30867 1.08893 -3.99373 6.69875 4.75042 -6.02362 2.24799 -3.33246 -5.86571 -4.30897 2.34427 -7.72581 -5.76297 7.04216 4.62472 6.67777
0.00435 0.58007 0.00563 178.39837 0 -4.75234 5.82519 7.55466 -8.46177 -29.01996 2.83577 -3.33627 -1.20986 -31.47786 30.74533 57.65342 91.58845 -21.14677 -4.84408 24.21201 11.25549 13.97264 9.34186 -79.71074 -5.41871 0.93606 -3.8852 6.71794 5.12184 -6.09244 2.18977 -3.31592 -5.85994 -4.35646 2.37005 -7.36742 -5.69405 7.04207 4.64048 6.65878
0.00464 0.58011 0.00571 177.98459 0 -4.80578 5.74274 7.76394 -8.50762 -30.54073 2.70685 -3.26582 0.04069 -30.73245 31.25284 57.11992 93.34592 -23.06899 -5.07862 24.5811 11.43619 16.17929 8.79902 -79.0365 -5.54699 0.77799 -3.76766 6.73925 5.526 -6.17168 2.1311 -3.30028 -5.85235 -4.41338 2.39914 -6.96983 -5.614 7.04303 4.65879 6.63102
0.00494 0.58015 0.00577 177.63897 0 -4.84941 5.66393 7.94265 -8.67274 -32.12722 2.57099 -3.12299 1.47705 -29.98856 31.58432 56.57072 95.12122 -24.73429 -5.29936 25.09707 11.53784 18.02477 8.37248 -78.43746 -5.64124 0.64943 -3.66825 6.75771 5.86462 -6.22952 2.07342 -3.28803 -5.84973 -4.4521 2.42295 -6.64627 -5.55367 7.04163 4.67209 6.61541
0.00525 0.58018 0.00577 177.48268 0 -4.86677 5.59471 8.04182 -9.18745 -33.87695 2.39772 -2.78356 3.33081 -29.25742 31.36312 56.09357 96.79098 -25.65267 -5.49023 25.9719 11.44518 18.92302 8.23911 -78.04168 -5.63351 0.57576 -3.62071 6.76703 6.01084 -6.22602 2.01844 -3.27921 -5.85171 -4.43861 2.43126 -6.53625 -5.5526 7.0356 4.66983 6.64066
0.00557 0.58021 0.00575 177.39544 0 -4.8741 5.52892 8.11114 -9.81885 -35.68286 2.21956 -2.37647 5.36009 -28.5348 30.96317 55.60483 98.48909 -26.33167 -5.67183 26.98521 11.27428 19.44809 8.22289 -77.72531 -5.59051 0.53038 -3.59137 6.77294 6.08864 -6.20125 1.96482 -3.27311 -5.85664 -4.40668 2.43383 -6.50164 -5.57158 7.02691 4.66275 6.67859
0.00588 0.58024 0.00574 177.27703 0 -4.8854 5.46098 8.19405 -10.38411 -37.44983 2.05431 -2.00999 7.31709 -27.81964 30.66114 55.09372 100.25042 -27.17028 -5.86615 27.92975 11.13379 20.11214 8.1611 -77.38073 -5.56465 0.47701 -3.55287 6.77978 6.19832 -6.18775 1.91126 -3.26616 -5.86075 -4.38348 2.43838 -6.43187 -5.58048 7.01818 4.65901 6.70976
